<svg xmlns="http://www.w3.org/2000/svg" xmlns:xlink="http://www.w3.org/1999/xlink"><defs><symbol viewBox="0 0 384 512" id="chevron-down"><!--! Font Awesome Free 6.1.0 by @fontawesome - https://fontawesome.com License - https://fontawesome.com/license/free (Icons: CC BY 4.0, Fonts: SIL OFL 1.1, Code: MIT License) Copyright 2022 Fonticons, Inc. --><path d="M192 384c-8.188 0-16.38-3.125-22.62-9.375l-160-160c-12.5-12.5-12.5-32.75 0-45.25s32.75-12.5 45.25 0L192 306.8l137.4-137.4c12.5-12.5 32.75-12.5 45.25 0s12.5 32.75 0 45.25l-160 160C208.4 380.9 200.2 384 192 384z" /></symbol><symbol viewBox="0 0 264 512" id="facebook"><path d="M76.7 512V283H0v-91h76.7v-71.7C76.7 42.4 124.3 0 193.8 0c33.3 0 61.9 2.5 70.2 3.6V85h-48.2c-37.8 0-45.1 18-45.1 44.3V192H256l-11.7 91h-73.6v229" /></symbol><symbol viewBox="0 0 448 512" id="instagram"><path d="M224.1 141c-63.6 0-114.9 51.3-114.9 114.9s51.3 114.9 114.9 114.9S339 319.5 339 255.9 287.7 141 224.1 141zm0 189.6c-41.1 0-74.7-33.5-74.7-74.7s33.5-74.7 74.7-74.7 74.7 33.5 74.7 74.7-33.6 74.7-74.7 74.7zm146.4-194.3c0 14.9-12 26.8-26.8 26.8-14.9 0-26.8-12-26.8-26.8s12-26.8 26.8-26.8 26.8 12 26.8 26.8zm76.1 27.2c-1.7-35.9-9.9-67.7-36.2-93.9-26.2-26.2-58-34.4-93.9-36.2-37-2.1-147.9-2.1-184.9 0-35.8 1.7-67.6 9.9-93.9 36.1s-34.4 58-36.2 93.9c-2.1 37-2.1 147.9 0 184.9 1.7 35.9 9.9 67.7 36.2 93.9s58 34.4 93.9 36.2c37 2.1 147.9 2.1 184.9 0 35.9-1.7 67.7-9.9 93.9-36.2 26.2-26.2 34.4-58 36.2-93.9 2.1-37 2.1-147.8 0-184.8zM398.8 388c-7.8 19.6-22.9 34.7-42.6 42.6-29.5 11.7-99.5 9-132.1 9s-102.7 2.6-132.1-9c-19.6-7.8-34.7-22.9-42.6-42.6-11.7-29.5-9-99.5-9-132.1s-2.6-102.7 9-132.1c7.8-19.6 22.9-34.7 42.6-42.6 29.5-11.7 99.5-9 132.1-9s102.7-2.6 132.1 9c19.6 7.8 34.7 22.9 42.6 42.6 11.7 29.5 9 99.5 9 132.1s2.7 102.7-9 132.1z" /></symbol><symbol viewBox="0 0 22 22" id="linkedin"><path fill="currentColor" fill-rule="evenodd" d="M97.7475763,18.7469652 L94.4847635,18.7469652 L94.4847635,13.64099 C94.4847635,12.4236229 94.4639851,10.8573016 92.7894942,10.8573016 C91.0911692,10.8573016 90.8320509,12.1840607 90.8320509,13.5542098 L90.8320509,18.7469652 L87.5729048,18.7469652 L87.5729048,8.24778466 L90.7006584,8.24778466 L90.7006584,9.68332454 L90.7458818,9.68332454 C91.181005,8.85769049 92.2455902,7.9874441 93.8326898,7.9874441 C97.1370594,7.9874441 97.7475763,10.1612267 97.7475763,12.9889164 L97.7475763,18.7469652 Z M83.8939137,6.81346704 C82.8458291,6.81346704 82.0006389,5.96583238 82.0006389,4.92080336 C82.0006389,3.87638546 82.8458291,3.0287508 83.8939137,3.0287508 C84.9377205,3.0287508 85.784744,3.87638546 85.784744,4.92080336 C85.784744,5.96583238 84.9377205,6.81346704 83.8939137,6.81346704 Z M82.2597572,18.7469652 L85.5262368,18.7469652 L85.5262368,8.24778466 L82.2597572,8.24778466 L82.2597572,18.7469652 Z M99.3725659,0 L80.6225451,0 C79.7272424,0 79,0.710130837 79,1.58648851 L79,20.4129004 C79,21.289258 79.7272424,22.0006111 80.6225451,22.0006111 L99.3725659,22.0006111 C100.269702,22.0006111 101,21.289258 101,20.4129004 L101,1.58648851 C101,0.710130837 100.269702,0 99.3725659,0 L99.3725659,0 Z" transform="translate(-79)" /></symbol><symbol viewBox="0 0 32 32" id="menu"><path d="M2 6h28v6H2zm0 8h28v6H2zm0 8h28v6H2z" /></symbol><symbol viewBox="0 0 24.04 24.04" id="menu-close"><path d="M4,23.78,23.78,4,28,8.22,8.22,28ZM8.22,4,28,23.78,23.78,28,4,8.22Z" transform="translate(-3.98 -3.98)" /></symbol><symbol viewBox="0 0 26 28" id="twitter"><path d="M25.312 6.375a10.85 10.85 0 01-2.531 2.609c.016.219.016.438.016.656 0 6.672-5.078 14.359-14.359 14.359-2.859 0-5.516-.828-7.75-2.266.406.047.797.063 1.219.063 2.359 0 4.531-.797 6.266-2.156a5.056 5.056 0 01-4.719-3.5c.313.047.625.078.953.078.453 0 .906-.063 1.328-.172a5.048 5.048 0 01-4.047-4.953v-.063a5.093 5.093 0 002.281.641 5.044 5.044 0 01-2.25-4.203c0-.938.25-1.797.688-2.547a14.344 14.344 0 0010.406 5.281 5.708 5.708 0 01-.125-1.156 5.045 5.045 0 015.047-5.047 5.03 5.03 0 013.687 1.594 9.943 9.943 0 003.203-1.219 5.032 5.032 0 01-2.219 2.781c1.016-.109 2-.391 2.906-.781z" /></symbol></defs></svg>