<svg width="44" height="40" viewBox="0 0 44 40" fill="none" xmlns="http://www.w3.org/2000/svg">
<path d="M20.6403 12.4798H23.3521C23.6119 12.4798 23.8181 12.6913 23.8105 12.948L23.2375 27.7501C23.2299 27.9918 23.0237 28.1882 22.7792 28.1882H21.2132C20.9688 28.1882 20.7625 27.9994 20.7549 27.7501L20.182 12.948C20.1743 12.6913 20.3806 12.4798 20.6403 12.4798ZM22 29.6986C20.816 29.6986 19.8612 30.6426 19.8612 31.8132C19.8612 32.9837 20.816 33.9277 22 33.9277C23.1841 33.9277 24.1389 32.9837 24.1389 31.8132C24.1389 30.6426 23.1841 29.6986 22 29.6986ZM43.5035 33.6257L25.1778 2.20898C23.7723 -0.207682 20.2355 -0.207682 18.8223 2.20898L0.496549 33.6257C-0.909008 36.0348 0.847938 39.0632 3.67433 39.0632H40.3334C43.1445 39.0632 44.9167 36.0423 43.5035 33.6257ZM40.3334 36.6465H3.66669C2.72711 36.6465 2.13891 35.6421 2.60488 34.834L20.9382 3.41732C21.4042 2.6168 22.5882 2.60925 23.0542 3.41732L41.3876 34.834C41.8612 35.6345 41.273 36.6465 40.3334 36.6465Z" fill="currentColor"/>
</svg>
