<svg width="34" height="35" viewBox="0 0 34 35" xmlns="http://www.w3.org/2000/svg" fill="none">
<g clip-path="url(#clip0_2216_13110)">
<path d="M17 3.38599C24.8772 3.38599 31.3438 9.76597 31.3438 17.7297C31.3438 25.6514 24.9282 32.0735 17 32.0735C9.08145 32.0735 2.65625 25.6612 2.65625 17.7297C2.65625 9.81391 9.07123 3.38599 17 3.38599ZM17 1.26099C7.9052 1.26099 0.53125 8.63759 0.53125 17.7297C0.53125 26.8272 7.9052 34.1985 17 34.1985C26.0948 34.1985 33.4688 26.8272 33.4688 17.7297C33.4688 8.63759 26.0948 1.26099 17 1.26099ZM14.6094 24.1047H15.4063V16.136H14.6094C14.1693 16.136 13.8125 15.7792 13.8125 15.3391V14.8079C13.8125 14.3678 14.1693 14.011 14.6094 14.011H17.7969C18.237 14.011 18.5938 14.3678 18.5938 14.8079V24.1047H19.3906C19.8307 24.1047 20.1875 24.4615 20.1875 24.9016V25.4329C20.1875 25.8729 19.8307 26.2297 19.3906 26.2297H14.6094C14.1693 26.2297 13.8125 25.8729 13.8125 25.4329V24.9016C13.8125 24.4615 14.1693 24.1047 14.6094 24.1047ZM17 8.16724C15.8264 8.16724 14.875 9.11864 14.875 10.2922C14.875 11.4658 15.8264 12.4172 17 12.4172C18.1736 12.4172 19.125 11.4658 19.125 10.2922C19.125 9.11864 18.1736 8.16724 17 8.16724Z" fill="currentColor"/>
</g>
<defs>
<clipPath id="clip0_2216_13110">
<rect width="34" height="34" transform="translate(0 0.729736)"/>
</clipPath>
</defs>
</svg>
