<svg xmlns="http://www.w3.org/2000/svg" width="22" height="22" viewBox="0 0 22 22">
  <path fill="currentColor" fill-rule="evenodd"
    d="M97.7475763,18.7469652 L94.4847635,18.7469652 L94.4847635,13.64099 C94.4847635,12.4236229 94.4639851,10.8573016 92.7894942,10.8573016 C91.0911692,10.8573016 90.8320509,12.1840607 90.8320509,13.5542098 L90.8320509,18.7469652 L87.5729048,18.7469652 L87.5729048,8.24778466 L90.7006584,8.24778466 L90.7006584,9.68332454 L90.7458818,9.68332454 C91.181005,8.85769049 92.2455902,7.9874441 93.8326898,7.9874441 C97.1370594,7.9874441 97.7475763,10.1612267 97.7475763,12.9889164 L97.7475763,18.7469652 Z M83.8939137,6.81346704 C82.8458291,6.81346704 82.0006389,5.96583238 82.0006389,4.92080336 C82.0006389,3.87638546 82.8458291,3.0287508 83.8939137,3.0287508 C84.9377205,3.0287508 85.784744,3.87638546 85.784744,4.92080336 C85.784744,5.96583238 84.9377205,6.81346704 83.8939137,6.81346704 Z M82.2597572,18.7469652 L85.5262368,18.7469652 L85.5262368,8.24778466 L82.2597572,8.24778466 L82.2597572,18.7469652 Z M99.3725659,0 L80.6225451,0 C79.7272424,0 79,0.710130837 79,1.58648851 L79,20.4129004 C79,21.289258 79.7272424,22.0006111 80.6225451,22.0006111 L99.3725659,22.0006111 C100.269702,22.0006111 101,21.289258 101,20.4129004 L101,1.58648851 C101,0.710130837 100.269702,0 99.3725659,0 L99.3725659,0 Z"
    transform="translate(-79)" />
</svg>